<svg id="Layer_1" data-name="Layer 1" xmlns="http://www.w3.org/2000/svg" viewBox="0 0 298 82"><defs><style>.cls-1{fill:#a4ca65;}.cls-2,.cls-7{fill:#f06622;}.cls-2,.cls-3,.cls-4,.cls-5{fill-rule:evenodd;}.cls-10,.cls-3{fill:#79b5e2;}.cls-4,.cls-9{fill:#1cb4ab;}.cls-5,.cls-8{fill:#f2a91d;}.cls-6{fill:#121212;}.cls-11{fill:#cd4f27;}.cls-12{fill:#c6862b;}.cls-13{fill:#009f90;}.cls-14{fill:#488ebe;}</style></defs><title>logo-proximax-sirius-Artboard 1</title><path class="cls-1" d="M138.32,63.08a1.17,1.17,0,0,1-.29.35.63.63,0,0,1-.4.12,1.08,1.08,0,0,1-.61-.26,9,9,0,0,0-.88-.58,7,7,0,0,0-1.28-.58,5.41,5.41,0,0,0-1.82-.27,5.31,5.31,0,0,0-1.77.27,3.67,3.67,0,0,0-1.29.74A2.89,2.89,0,0,0,129.2,64a3.32,3.32,0,0,0-.27,1.35,2.48,2.48,0,0,0,.46,1.53,3.85,3.85,0,0,0,1.2,1,9.89,9.89,0,0,0,1.7.75l2,.65c.66.23,1.31.48,1.94.77a6.71,6.71,0,0,1,1.7,1.07,4.94,4.94,0,0,1,1.21,1.59,5.36,5.36,0,0,1,.45,2.32,7.46,7.46,0,0,1-.49,2.72A6.24,6.24,0,0,1,137.6,80a6.69,6.69,0,0,1-2.33,1.48,8.58,8.58,0,0,1-3.14.54,9.55,9.55,0,0,1-3.91-.78,9.07,9.07,0,0,1-3-2.11l.86-1.42a1,1,0,0,1,.3-.28.7.7,0,0,1,.4-.12,1.26,1.26,0,0,1,.74.35c.28.23.62.48,1,.76a7.86,7.86,0,0,0,1.51.77,6.07,6.07,0,0,0,2.17.34,5.58,5.58,0,0,0,1.9-.29,3.92,3.92,0,0,0,1.42-.83,3.54,3.54,0,0,0,.88-1.27,4.15,4.15,0,0,0,.31-1.65,2.82,2.82,0,0,0-.45-1.65,4,4,0,0,0-1.2-1.07,8.19,8.19,0,0,0-1.69-.73l-1.95-.62c-.66-.21-1.31-.46-1.94-.73a6.26,6.26,0,0,1-1.69-1.08,5,5,0,0,1-1.2-1.66,6,6,0,0,1-.46-2.47,5.94,5.94,0,0,1,.46-2.27,5.67,5.67,0,0,1,1.32-1.94,6.38,6.38,0,0,1,2.14-1.36,7.82,7.82,0,0,1,2.93-.51,9.2,9.2,0,0,1,3.38.59,7.74,7.74,0,0,1,2.67,1.69Z"/><path class="cls-1" d="M146.6,61.2a1.87,1.87,0,0,1-.16.75,2.26,2.26,0,0,1-.44.62,1.89,1.89,0,0,1-.62.42,2,2,0,0,1-.76.16,1.9,1.9,0,0,1-.75-.16,2,2,0,0,1-.61-.42,2,2,0,0,1-.43-.62,1.86,1.86,0,0,1-.15-.75,1.94,1.94,0,0,1,.15-.76,1.9,1.9,0,0,1,.43-.64,2,2,0,0,1,.61-.42,1.9,1.9,0,0,1,.75-.16,2,2,0,0,1,.76.16,1.89,1.89,0,0,1,.62.42,2.08,2.08,0,0,1,.44.64A2,2,0,0,1,146.6,61.2ZM146,66.11V81.75h-2.75V66.11Z"/><path class="cls-1" d="M150.83,81.75V66.11h1.58a.87.87,0,0,1,.61.17,1,1,0,0,1,.23.59l.19,2.44a7.18,7.18,0,0,1,2-2.56,4.43,4.43,0,0,1,2.78-.92,4.25,4.25,0,0,1,1.17.15,4,4,0,0,1,1,.41l-.35,2a.47.47,0,0,1-.48.39,2.36,2.36,0,0,1-.67-.15,4.09,4.09,0,0,0-1.25-.14,3.54,3.54,0,0,0-2.4.83,6.21,6.21,0,0,0-1.61,2.42v10Z"/><path class="cls-1" d="M167,61.2a1.71,1.71,0,0,1-.16.75,2.22,2.22,0,0,1-.43.62,1.93,1.93,0,0,1-.63.42,2,2,0,0,1-.76.16,1.86,1.86,0,0,1-.74-.16,1.89,1.89,0,0,1-.62-.42,2.22,2.22,0,0,1-.43-.62,1.86,1.86,0,0,1-.15-.75,1.94,1.94,0,0,1,.15-.76,2.06,2.06,0,0,1,.43-.64,1.89,1.89,0,0,1,.62-.42,1.86,1.86,0,0,1,.74-.16,2,2,0,0,1,.76.16,1.93,1.93,0,0,1,.63.42,2.06,2.06,0,0,1,.43.64A1.79,1.79,0,0,1,167,61.2Zm-.62,4.91V81.75h-2.75V66.11Z"/><path class="cls-1" d="M173.56,66.11v10a4.09,4.09,0,0,0,.82,2.74,3,3,0,0,0,2.47,1,4.75,4.75,0,0,0,2.27-.57,7.07,7.07,0,0,0,2-1.59V66.11h2.75V81.75h-1.64a.7.7,0,0,1-.74-.57l-.22-1.68A8.51,8.51,0,0,1,179,81.31a6,6,0,0,1-2.9.69,5.74,5.74,0,0,1-2.27-.42,4.62,4.62,0,0,1-1.64-1.2,5.17,5.17,0,0,1-1-1.87,8.38,8.38,0,0,1-.33-2.42v-10Z"/><path class="cls-1" d="M197.31,68.69a.6.6,0,0,1-.57.34,1.12,1.12,0,0,1-.53-.17c-.19-.11-.43-.24-.72-.38a5.8,5.8,0,0,0-1-.38,4.74,4.74,0,0,0-1.39-.18,4.06,4.06,0,0,0-1.25.18,3,3,0,0,0-1,.48,2.27,2.27,0,0,0-.6.72,1.91,1.91,0,0,0-.21.89,1.49,1.49,0,0,0,.35,1,3.06,3.06,0,0,0,.92.7,8.39,8.39,0,0,0,1.3.51l1.49.48c.51.17,1,.36,1.49.57a5.19,5.19,0,0,1,1.29.77A3.34,3.34,0,0,1,198.19,77a5.09,5.09,0,0,1-.39,2,4.36,4.36,0,0,1-1.14,1.59,5.46,5.46,0,0,1-1.85,1,7.55,7.55,0,0,1-2.53.39,8,8,0,0,1-3-.53,7.48,7.48,0,0,1-2.25-1.37l.64-1a1,1,0,0,1,.3-.31.83.83,0,0,1,.45-.11,1.05,1.05,0,0,1,.58.22l.75.48a6.4,6.4,0,0,0,1.07.48,4.94,4.94,0,0,0,1.56.21,4.57,4.57,0,0,0,1.41-.2,2.85,2.85,0,0,0,1-.57,2.26,2.26,0,0,0,.6-.82,2.5,2.5,0,0,0,.19-1,1.66,1.66,0,0,0-.35-1.07,2.84,2.84,0,0,0-.92-.72,7.48,7.48,0,0,0-1.3-.53l-1.5-.47a15.88,15.88,0,0,1-1.5-.56,5.16,5.16,0,0,1-1.3-.8,3.58,3.58,0,0,1-.92-1.18,3.86,3.86,0,0,1-.35-1.71,4.29,4.29,0,0,1,.37-1.72,4.34,4.34,0,0,1,1.08-1.45,5.42,5.42,0,0,1,1.75-1,7.17,7.17,0,0,1,2.36-.37,7.52,7.52,0,0,1,2.77.49,6.48,6.48,0,0,1,2.13,1.34Z"/><path class="cls-1" d="M221.78,59.63v2.44H211.16V69.8h9.08v2.44h-9.08v9.51h-3V59.63Z"/><path class="cls-1" d="M236.68,81.75h-1.22a1.46,1.46,0,0,1-.64-.12.67.67,0,0,1-.33-.53l-.31-1.45c-.41.37-.81.71-1.2,1a6.71,6.71,0,0,1-2.62,1.2,8.15,8.15,0,0,1-1.63.15,5.5,5.5,0,0,1-1.7-.26,3.82,3.82,0,0,1-1.39-.76,3.58,3.58,0,0,1-.93-1.3,4.56,4.56,0,0,1-.35-1.85,3.48,3.48,0,0,1,.51-1.79,4.46,4.46,0,0,1,1.65-1.52,10.52,10.52,0,0,1,3-1.1A20.45,20.45,0,0,1,234,73V71.77A4.24,4.24,0,0,0,233.2,69a2.82,2.82,0,0,0-2.31-.94,4.9,4.9,0,0,0-1.69.25,6.6,6.6,0,0,0-1.19.57c-.33.21-.62.4-.86.57a1.25,1.25,0,0,1-.72.26.84.84,0,0,1-.49-.15,1.26,1.26,0,0,1-.33-.36l-.49-.88a8.88,8.88,0,0,1,2.79-1.87,8.69,8.69,0,0,1,3.32-.62,5.83,5.83,0,0,1,2.33.44,4.72,4.72,0,0,1,1.72,1.2,5.17,5.17,0,0,1,1.05,1.87,7.67,7.67,0,0,1,.35,2.41Zm-7.13-1.68a5.52,5.52,0,0,0,1.33-.15,4.76,4.76,0,0,0,1.13-.41,5.55,5.55,0,0,0,1-.66A8.62,8.62,0,0,0,234,78V74.74a18.61,18.61,0,0,0-3.23.24,9,9,0,0,0-2.16.63,3.06,3.06,0,0,0-1.21.92,2,2,0,0,0-.38,1.18,2.69,2.69,0,0,0,.2,1.07,2.18,2.18,0,0,0,.54.74,2.23,2.23,0,0,0,.81.42A3.56,3.56,0,0,0,229.55,80.07Z"/><path class="cls-1" d="M243.23,66.11v10a4.09,4.09,0,0,0,.82,2.74,3.05,3.05,0,0,0,2.47,1,4.75,4.75,0,0,0,2.27-.57,7.07,7.07,0,0,0,2-1.59V66.11h2.75V81.75h-1.64a.7.7,0,0,1-.74-.57l-.21-1.68a8.55,8.55,0,0,1-2.29,1.81,6,6,0,0,1-2.9.69,5.74,5.74,0,0,1-2.27-.42,4.62,4.62,0,0,1-1.64-1.2,5.32,5.32,0,0,1-1-1.87,8.38,8.38,0,0,1-.33-2.42v-10Z"/><path class="cls-1" d="M268.69,68.89a1.23,1.23,0,0,1-.24.26.62.62,0,0,1-.36.1.89.89,0,0,1-.5-.2,6.19,6.19,0,0,0-.69-.42,5.37,5.37,0,0,0-1-.43,4.7,4.7,0,0,0-1.46-.19,4.79,4.79,0,0,0-2,.41,4,4,0,0,0-1.48,1.18,5.5,5.5,0,0,0-.89,1.87,10.16,10.16,0,0,0,0,5A5.52,5.52,0,0,0,261,78.3a3.85,3.85,0,0,0,1.43,1.14,4.29,4.29,0,0,0,1.89.4A4.9,4.9,0,0,0,266,79.6a5.43,5.43,0,0,0,1.08-.53c.28-.2.52-.38.71-.54a.84.84,0,0,1,.55-.24.59.59,0,0,1,.53.27l.77,1A6,6,0,0,1,267,81.39a8.94,8.94,0,0,1-3.23.58,6.84,6.84,0,0,1-2.72-.54,6.18,6.18,0,0,1-2.19-1.57,7.56,7.56,0,0,1-1.46-2.52,10.32,10.32,0,0,1-.53-3.42,10.11,10.11,0,0,1,.49-3.22,7.33,7.33,0,0,1,1.42-2.56,6.42,6.42,0,0,1,2.31-1.67,7.6,7.6,0,0,1,3.15-.61,7.32,7.32,0,0,1,2.9.54,6.79,6.79,0,0,1,2.24,1.5Z"/><path class="cls-1" d="M278.64,65.86a7,7,0,0,1,2.59.47,5.93,5.93,0,0,1,2.06,1.36,6.48,6.48,0,0,1,1.35,2.2,8.57,8.57,0,0,1,.48,3,1.83,1.83,0,0,1-.13.86.58.58,0,0,1-.53.22H274.05a8.85,8.85,0,0,0,.4,2.58,5.38,5.38,0,0,0,1,1.83A4.09,4.09,0,0,0,277,79.44a5.09,5.09,0,0,0,2,.37,5.92,5.92,0,0,0,1.79-.24,8,8,0,0,0,1.29-.52,8.38,8.38,0,0,0,.9-.52,1.19,1.19,0,0,1,.63-.24.59.59,0,0,1,.52.27l.77,1a5,5,0,0,1-1.22,1.07,6.94,6.94,0,0,1-1.52.75,9.55,9.55,0,0,1-1.67.44,10.08,10.08,0,0,1-1.72.15,7.91,7.91,0,0,1-3-.55,6.59,6.59,0,0,1-2.36-1.6,7.47,7.47,0,0,1-1.55-2.62,10.68,10.68,0,0,1-.56-3.58,9,9,0,0,1,.51-3.06,7,7,0,0,1,1.44-2.46,6.58,6.58,0,0,1,2.3-1.64A7.53,7.53,0,0,1,278.64,65.86Zm.06,2A4.19,4.19,0,0,0,275.57,69a5.32,5.32,0,0,0-1.42,3.19h8.5a5.46,5.46,0,0,0-.26-1.76,3.75,3.75,0,0,0-.77-1.37,3.48,3.48,0,0,0-1.24-.9A4.23,4.23,0,0,0,278.7,67.89Z"/><path class="cls-1" d="M293.37,82a3.76,3.76,0,0,1-2.85-1,4.16,4.16,0,0,1-1-3V68.41h-1.88a.64.64,0,0,1-.42-.15.55.55,0,0,1-.17-.45v-1.1l2.57-.32.63-4.83a.59.59,0,0,1,.2-.38.63.63,0,0,1,.43-.15h1.39v5.39h4.48v2h-4.48V77.8a2,2,0,0,0,.48,1.47,1.67,1.67,0,0,0,1.24.48,2.19,2.19,0,0,0,.75-.12,3.44,3.44,0,0,0,.54-.25l.4-.26A.5.5,0,0,1,296,79a.47.47,0,0,1,.39.27l.8,1.31a5.06,5.06,0,0,1-1.71,1A5.88,5.88,0,0,1,293.37,82Z"/><path class="cls-2" d="M43.32,8.28c9.33-2.65,13.29-2,20.58-1.21A73,73,0,0,0,32.86,0c-1.59,0-3.19.06-4.78.17A28.58,28.58,0,0,1,34.53,5c1.1,1.13,3.38,3.78,4.94,4.05,1.19.21,2.94-.52,3.85-.78"/><path class="cls-3" d="M54.9,46.45c-.81-3.59-1.89-7.16-3-10.59-.58-1.79-1.22-3.56-1.84-5.34s-1.29-3.45-2-5.15C45,18.06,45.29,18,51,14.74c3.87-2,10-4.75,14.3-4.54l.45,0A66.26,66.26,0,0,1,54.9,46.45"/><path class="cls-4" d="M7,39.73c3.7-2.91,7.84-5.69,10.84-7.6a131.37,131.37,0,0,1,12.42-6.75,15,15,0,0,1,4.36-1.61,3.07,3.07,0,0,1,1.35.15c1.37.58,3.66,4.27,3.66,4.27l0,0c.4.59.77,1.22,1.2,1.8s.87,1.32,1.27,2c.61,1,1.2,2,1.79,3,1,1.61,2,3.29,2.83,5,1.42,2.75,3.41,6.65,5.11,10.82a66.44,66.44,0,0,1-18,16.09l-.94.57-.95-.57A66.28,66.28,0,0,1,7,39.73"/><path class="cls-5" d="M21.22,1c.34.37.67.74,1,1.09.65.79,1.29,1.61,1.9,2.43a27.9,27.9,0,0,1,2.06,2.88c.86,1.57,2.7,4,3.25,5.4a2.87,2.87,0,0,1,.21,1.42,1.92,1.92,0,0,1-.68,1c-.71.58-1.06.76-1.66,1.2-2.66,1.94-5.2,4-7.77,6.07-2.88,2.28-5.74,5-8.39,7.54-1.82,1.77-3.87,3.89-5.79,6.13A66.12,66.12,0,0,1,0,9.06L0,7.94l1-.49A74.74,74.74,0,0,1,21.22,1"/><path class="cls-6" d="M79.1,16.8h14c6.55,0,11,4.8,11,11.58s-4.42,11.68-11,11.68H87.34v10.4H79.1ZM91.39,33c2.87,0,4.28-1.93,4.28-4.62s-1.41-4.52-4.14-4.52H87.34V33Z"/><path class="cls-6" d="M107.76,25.88h7.71V31.4a8.29,8.29,0,0,1,7.61-5.94,6.52,6.52,0,0,1,.93.09v7.9a7.65,7.65,0,0,0-1.62-.14c-4.46,0-6.6,2.83-6.6,7.19v9.29h-8Z"/><path class="cls-6" d="M140.3,25.32c7.57,0,13.6,5.06,13.6,12.58s-6,12.45-13.56,12.45-13.55-5-13.55-12.45,6-12.58,13.51-12.58m0,18.34a5.41,5.41,0,0,0,5.44-5.76c0-3.62-2.51-5.89-5.44-5.89s-5.43,2.27-5.43,5.89a5.41,5.41,0,0,0,5.43,5.76"/><path class="cls-6" d="M252.17,34.89h.7v-.42c0-2-1.63-2.65-3.39-2.65a12.45,12.45,0,0,0-6.59,2.28l-2.79-5.67a18.4,18.4,0,0,1,10.12-3.11c6.59,0,10.68,3.67,10.68,9.75V49.79h-7.34V46.86a8.76,8.76,0,0,1-7.1,3.49c-4.6,0-7.8-3.16-7.8-7.29,0-6.41,7.62-8.17,13.51-8.17m-3.3,9.47A4.37,4.37,0,0,0,253,40.13v-.65h-.74c-2.46,0-5.62.65-5.62,2.84a2,2,0,0,0,2.27,2"/><polygon class="cls-7" points="297.36 16.8 295.2 16.8 285.61 31.46 286.68 33.12 296.58 18 297.36 16.8"/><polygon class="cls-8" points="292.73 16.8 284.38 29.57 285.32 31.02 294.63 16.8 292.73 16.8"/><polygon class="cls-9" points="290.32 16.8 283.19 27.71 284.12 29.15 292.2 16.8 290.32 16.8"/><polygon class="cls-10" points="287.55 16.8 283.97 22.26 281.81 25.58 282.89 27.25 289.72 16.8 287.55 16.8"/><polygon class="cls-11" points="285.61 31.46 286.68 33.12 289.01 29.57 287.93 27.91 285.61 31.46"/><polygon class="cls-12" points="285.32 31.02 287.65 27.46 286.71 26.01 284.38 29.57 285.32 31.02"/><polygon class="cls-13" points="284.12 29.15 286.44 25.59 285.51 24.15 283.19 27.71 284.12 29.15"/><polygon class="cls-14" points="281.81 25.58 282.89 27.25 285.21 23.69 284.13 22.02 282.87 23.94 281.81 25.58"/><polygon class="cls-6" points="276.16 16.85 266 16.85 276.69 33.38 265.55 50.46 275.48 50.46 281.62 41.01 287.73 50.46 297.89 50.46 286.71 33.16 281.8 25.56 276.16 16.85"/><rect class="cls-6" x="184.34" y="25.88" width="8.03" height="23.91"/><rect class="cls-6" x="184.43" y="16.59" width="7.85" height="6.27"/><path class="cls-6" d="M198,26.13H206v3.14a8.41,8.41,0,0,1,6.82-3.65,7,7,0,0,1,6.62,3.73,9.63,9.63,0,0,1,7.67-3.73c4.87,0,7.84,3.05,7.84,8.4v16h-8V36.6c0-2.5-1.23-3.81-3.14-3.81s-3.31,1.31-3.31,3.81V50.05h-8V36.6c0-2.5-1.23-3.81-3.14-3.81S206,34.1,206,36.6V50.05H198Z"/><polygon class="cls-6" points="179.9 49.78 171.71 37.64 179.72 25.89 170.85 25.89 167.3 31.1 163.78 25.89 154.73 25.89 162.76 37.77 154.6 49.78 163.43 49.78 167.17 44.28 170.89 49.78 179.9 49.78"/></svg>