<svg id="Layer_1" data-name="Layer 1" xmlns="http://www.w3.org/2000/svg" viewBox="0 0 310 82"><defs><style>.cls-1{fill:#121212;}.cls-11,.cls-2{fill:#ee6723;}.cls-14,.cls-3{fill:#f1a81f;}.cls-13,.cls-4{fill:#1bb2a9;}.cls-12,.cls-5{fill:#7ab4e2;}.cls-6{fill:#cd4f28;}.cls-7{fill:#c4852b;}.cls-8{fill:#009f8f;}.cls-9{fill:#478dbe;}.cls-10{fill:#904090;}.cls-11,.cls-12,.cls-13,.cls-14{fill-rule:evenodd;}</style></defs><title>Artboard 1</title><path class="cls-1" d="M82.32,17.49H96.87c6.81,0,11.41,5,11.41,12.05s-4.6,12.15-11.41,12.15h-6V52.51H82.32ZM95.1,34.34c3,0,4.46-2,4.46-4.8s-1.47-4.71-4.31-4.71H90.89v9.51Z"/><path class="cls-1" d="M112.14,26.93h8v5.75a8.65,8.65,0,0,1,7.93-6.18,5.8,5.8,0,0,1,1,.09v8.22a7.57,7.57,0,0,0-1.69-.15c-4.64,0-6.86,3-6.86,7.49v9.66h-8.36Z"/><path class="cls-1" d="M146,26.35c7.87,0,14.16,5.27,14.16,13.1s-6.29,12.94-14.11,12.94-14.11-5.17-14.11-12.94,6.28-13.1,14.06-13.1m.05,19.09a5.63,5.63,0,0,0,5.65-6c0-3.77-2.61-6.14-5.65-6.14s-5.65,2.37-5.65,6.14a5.62,5.62,0,0,0,5.65,6"/><path class="cls-1" d="M262.42,36.31h.72v-.44c0-2.08-1.69-2.76-3.52-2.76a13.05,13.05,0,0,0-6.86,2.37l-2.9-5.89a19.17,19.17,0,0,1,10.53-3.24c6.86,0,11.11,3.82,11.11,10.15V51.81h-7.63v-3a9.12,9.12,0,0,1-7.39,3.62c-4.79,0-8.12-3.28-8.12-7.58,0-6.67,7.92-8.5,14.06-8.5M259,46.16a4.56,4.56,0,0,0,4.25-4.4v-.67h-.77c-2.56,0-5.85.67-5.85,2.95A2.12,2.12,0,0,0,259,46.16"/><polygon class="cls-2" points="309.44 17.49 307.2 17.49 297.22 32.74 298.33 34.47 308.63 18.73 309.44 17.49"/><polygon class="cls-3" points="304.63 17.49 295.94 30.77 296.92 32.28 306.6 17.49 304.63 17.49"/><polygon class="cls-4" points="302.12 17.49 294.69 28.84 295.66 30.34 304.07 17.49 302.12 17.49"/><polygon class="cls-5" points="299.23 17.49 295.51 23.17 293.26 26.62 294.38 28.36 301.5 17.49 299.23 17.49"/><polygon class="cls-6" points="297.22 32.74 298.33 34.47 300.75 30.77 299.63 29.04 297.22 32.74"/><polygon class="cls-7" points="296.92 32.28 299.34 28.58 298.36 27.06 295.94 30.77 296.92 32.28"/><polygon class="cls-8" points="295.66 30.34 298.08 26.64 297.11 25.14 294.69 28.84 295.66 30.34"/><polygon class="cls-9" points="293.26 26.62 294.38 28.36 296.8 24.66 295.68 22.91 294.37 24.91 293.26 26.62"/><polygon class="cls-1" points="287.38 17.53 276.81 17.53 287.94 34.74 276.34 52.51 286.67 52.51 293.06 42.67 299.43 52.51 310 52.51 298.36 34.51 293.25 26.6 287.38 17.53"/><rect class="cls-1" x="191.83" y="26.93" width="8.36" height="24.88"/><rect class="cls-1" x="191.92" y="17.27" width="8.17" height="6.52"/><path class="cls-1" d="M206,27.19h8.38v3.27a8.76,8.76,0,0,1,7.1-3.8,7.34,7.34,0,0,1,6.89,3.88,10,10,0,0,1,8-3.88c5.07,0,8.16,3.18,8.16,8.74V52.08h-8.38v-14c0-2.6-1.28-4-3.27-4s-3.44,1.37-3.44,4v14H221v-14c0-2.6-1.28-4-3.26-4s-3.4,1.37-3.4,4v14H206Z"/><polygon class="cls-1" points="187.21 51.8 178.69 39.17 187.03 26.94 177.79 26.94 174.1 32.37 170.44 26.94 161.02 26.94 169.38 39.3 160.88 51.8 170.07 51.8 173.97 46.09 177.84 51.8 187.21 51.8"/><path class="cls-10" d="M158.31,69.91l-7.56-11.14h3.09a.91.91,0,0,1,.49.11,1.29,1.29,0,0,1,.29.32l6,9.17a4.63,4.63,0,0,1,.34-.73l5.64-8.37a1.39,1.39,0,0,1,.31-.36.63.63,0,0,1,.4-.14h3l-7.59,11,7.85,11.9h-3.07a.78.78,0,0,1-.55-.18,1.61,1.61,0,0,1-.33-.41l-6.13-9.6a3.69,3.69,0,0,1-.29.64l-6,9a2.69,2.69,0,0,1-.33.41.71.71,0,0,1-.52.18h-2.88Z"/><path class="cls-10" d="M176.65,73.1v8.56h-3.09V58.77h6.76a12.53,12.53,0,0,1,3.78.51,7.2,7.2,0,0,1,2.66,1.43,5.77,5.77,0,0,1,1.57,2.23,7.82,7.82,0,0,1,.52,2.92,7.54,7.54,0,0,1-.56,2.93,6.28,6.28,0,0,1-1.64,2.28,7.68,7.68,0,0,1-2.67,1.5,11.75,11.75,0,0,1-3.66.53Zm0-2.46h3.67a7.29,7.29,0,0,0,2.34-.35,4.72,4.72,0,0,0,1.7-1,4.17,4.17,0,0,0,1-1.51,5.27,5.27,0,0,0,.35-1.94,4.39,4.39,0,0,0-1.35-3.41,5.89,5.89,0,0,0-4.08-1.23h-3.67Z"/><path class="cls-10" d="M197.79,69.91l-7.55-11.14h3.08a1,1,0,0,1,.5.11,1.26,1.26,0,0,1,.28.32l6,9.17a3.79,3.79,0,0,1,.33-.73l5.64-8.37a1.61,1.61,0,0,1,.31-.36.64.64,0,0,1,.41-.14h2.95l-7.58,11L210,81.66h-3.07a.81.81,0,0,1-.55-.18,1.86,1.86,0,0,1-.33-.41l-6.13-9.6a3.07,3.07,0,0,1-.29.64l-6,9a2.69,2.69,0,0,1-.33.41.7.7,0,0,1-.52.18h-2.87Z"/><path class="cls-10" d="M232.71,58.77V61.3h-11v8h9.39v2.52h-9.39v9.84h-3.11V58.77Z"/><path class="cls-10" d="M247.84,81.66h-1.27a1.45,1.45,0,0,1-.67-.13.68.68,0,0,1-.33-.54l-.32-1.5c-.43.38-.84.73-1.25,1a7.25,7.25,0,0,1-1.28.77,7.05,7.05,0,0,1-1.43.47,8.56,8.56,0,0,1-1.68.16,5.66,5.66,0,0,1-1.77-.27,4.08,4.08,0,0,1-1.43-.79,3.8,3.8,0,0,1-1-1.34,4.68,4.68,0,0,1-.36-1.91,3.5,3.5,0,0,1,.53-1.85,4.52,4.52,0,0,1,1.7-1.58,10.82,10.82,0,0,1,3.07-1.13,20.61,20.61,0,0,1,4.65-.44V71.34a4.39,4.39,0,0,0-.81-2.87,2.9,2.9,0,0,0-2.38-1,4.91,4.91,0,0,0-1.75.27,5.87,5.87,0,0,0-1.23.59c-.35.22-.65.41-.9.59a1.26,1.26,0,0,1-.74.26.84.84,0,0,1-.5-.15,1.12,1.12,0,0,1-.35-.37l-.51-.91a9.3,9.3,0,0,1,2.89-1.94,9.08,9.08,0,0,1,3.44-.64,6.09,6.09,0,0,1,2.41.45,4.91,4.91,0,0,1,1.77,1.25,5.28,5.28,0,0,1,1.09,1.93,8.23,8.23,0,0,1,.37,2.49Zm-7.38-1.74a5.87,5.87,0,0,0,1.37-.15,5.63,5.63,0,0,0,1.17-.43,6.34,6.34,0,0,0,1.06-.68,10.27,10.27,0,0,0,1-.91V74.41a18.73,18.73,0,0,0-3.34.25,9.36,9.36,0,0,0-2.23.65,3.07,3.07,0,0,0-1.26,1,2,2,0,0,0-.39,1.22,2.68,2.68,0,0,0,.21,1.11,2.06,2.06,0,0,0,.56.76,2.12,2.12,0,0,0,.83.43A3.44,3.44,0,0,0,240.46,79.92Z"/><path class="cls-10" d="M254.32,65.48V75.8a4.24,4.24,0,0,0,.85,2.84,3.14,3.14,0,0,0,2.55,1,4.94,4.94,0,0,0,2.35-.59,7.27,7.27,0,0,0,2-1.65V65.48h2.84V81.66h-1.69a.72.72,0,0,1-.77-.59l-.22-1.74a8.86,8.86,0,0,1-2.37,1.88,6.21,6.21,0,0,1-3,.71,5.92,5.92,0,0,1-2.34-.44,4.71,4.71,0,0,1-1.7-1.24,5.26,5.26,0,0,1-1-1.93,8.61,8.61,0,0,1-.34-2.51V65.48Z"/><path class="cls-10" d="M280.37,68.36a1.66,1.66,0,0,1-.25.27.65.65,0,0,1-.37.09.88.88,0,0,1-.52-.2c-.19-.13-.42-.28-.71-.44a6.69,6.69,0,0,0-1-.43,4.72,4.72,0,0,0-1.51-.2,4.94,4.94,0,0,0-2.09.42,4,4,0,0,0-1.52,1.22,5.42,5.42,0,0,0-.93,1.93,10.56,10.56,0,0,0,0,5.16,5.78,5.78,0,0,0,.94,1.91,4,4,0,0,0,1.48,1.18,4.44,4.44,0,0,0,2,.41,4.9,4.9,0,0,0,1.71-.25,5.08,5.08,0,0,0,1.12-.55,7.65,7.65,0,0,0,.73-.55.91.91,0,0,1,.58-.25.59.59,0,0,1,.54.28l.8,1a6.13,6.13,0,0,1-2.64,1.9,9.29,9.29,0,0,1-3.34.6,7,7,0,0,1-2.81-.56,6.65,6.65,0,0,1-2.27-1.62,7.69,7.69,0,0,1-1.5-2.62,11.27,11.27,0,0,1-.05-6.86,7.35,7.35,0,0,1,1.47-2.65,6.54,6.54,0,0,1,2.39-1.73,7.92,7.92,0,0,1,3.25-.62,7.69,7.69,0,0,1,3,.55,7.06,7.06,0,0,1,2.31,1.55Z"/><path class="cls-10" d="M290.37,65.23a7.3,7.3,0,0,1,2.68.48,6.19,6.19,0,0,1,2.13,1.41,6.56,6.56,0,0,1,1.4,2.27,8.86,8.86,0,0,1,.5,3.07,2,2,0,0,1-.14.9.61.61,0,0,1-.55.22H285.63a9.13,9.13,0,0,0,.41,2.67,5.57,5.57,0,0,0,1.06,1.89,4.14,4.14,0,0,0,1.59,1.13,5.51,5.51,0,0,0,2.08.38,5.89,5.89,0,0,0,1.84-.25,8.7,8.7,0,0,0,1.34-.53,8.92,8.92,0,0,0,.93-.54,1.3,1.3,0,0,1,.65-.25.61.61,0,0,1,.54.28l.8,1a5.18,5.18,0,0,1-1.26,1.11,7.66,7.66,0,0,1-1.57.78,10.1,10.1,0,0,1-1.74.45,9.63,9.63,0,0,1-1.77.16,8.17,8.17,0,0,1-3.09-.57A6.75,6.75,0,0,1,285,79.66,7.51,7.51,0,0,1,283.39,77a11.12,11.12,0,0,1-.57-3.71,9.6,9.6,0,0,1,.51-3.16,7.54,7.54,0,0,1,1.5-2.55,7,7,0,0,1,2.38-1.69A7.78,7.78,0,0,1,290.37,65.23Zm.06,2.09a4.38,4.38,0,0,0-3.24,1.19,5.56,5.56,0,0,0-1.47,3.3h8.8a5.84,5.84,0,0,0-.27-1.82,4.12,4.12,0,0,0-.8-1.42,3.47,3.47,0,0,0-1.28-.92A4.35,4.35,0,0,0,290.43,67.32Z"/><path class="cls-10" d="M305.32,81.92a3.92,3.92,0,0,1-2.95-1.07,4.32,4.32,0,0,1-1-3.09v-9.9h-1.95a.64.64,0,0,1-.43-.15.61.61,0,0,1-.17-.47V66.11l2.65-.34.65-5a.58.58,0,0,1,.21-.39.68.68,0,0,1,.45-.15h1.44V65.8h4.63v2.06h-4.63v9.71a2.07,2.07,0,0,0,.49,1.52,1.74,1.74,0,0,0,1.28.5,2.18,2.18,0,0,0,.77-.12,3,3,0,0,0,.57-.27,4.27,4.27,0,0,0,.41-.26.53.53,0,0,1,.29-.12.48.48,0,0,1,.4.27l.83,1.36a5.26,5.26,0,0,1-1.77,1.08A6,6,0,0,1,305.32,81.92Z"/><path class="cls-11" d="M44.83,8.57c9.66-2.75,13.76-2,21.3-1.25A75.47,75.47,0,0,0,34,0c-1.65,0-3.31.06-4.95.17a29.88,29.88,0,0,1,6.67,5c1.15,1.17,3.51,3.92,5.12,4.2,1.23.21,3-.54,4-.81"/><path class="cls-12" d="M56.81,48.07c-.84-3.72-1.94-7.41-3.09-11-.6-1.85-1.26-3.69-1.9-5.52S50.48,28,49.76,26.25c-3.23-7.56-2.89-7.59,3-11,4-2,10.29-4.92,14.8-4.69l.46,0A68.49,68.49,0,0,1,56.81,48.07"/><path class="cls-13" d="M7.22,41.12c3.83-3,8.11-5.89,11.23-7.86a133.35,133.35,0,0,1,12.85-7,15.69,15.69,0,0,1,4.51-1.66,3.33,3.33,0,0,1,1.4.15c1.41.6,3.78,4.42,3.78,4.42l0,0c.42.62.81,1.26,1.25,1.87s.9,1.37,1.31,2c.63,1,1.24,2.05,1.85,3.08,1,1.66,2,3.4,2.93,5.11,1.47,2.85,3.53,6.89,5.29,11.2A68.54,68.54,0,0,1,35,69.16l-1,.59-1-.59a68.54,68.54,0,0,1-25.82-28"/><path class="cls-14" d="M22,1q.54.58,1,1.14c.68.81,1.34,1.66,2,2.5a29.53,29.53,0,0,1,2.13,3c.9,1.62,2.8,4.08,3.37,5.59a3,3,0,0,1,.21,1.46,2.06,2.06,0,0,1-.7,1c-.74.6-1.1.79-1.72,1.24-2.75,2-5.37,4.16-8,6.28-3,2.37-5.94,5.16-8.68,7.81-1.88,1.83-4,4-6,6.34A68.45,68.45,0,0,1,0,9.38L0,8.22l1-.51A77.12,77.12,0,0,1,22,1"/></svg>